<svg xmlns="http://www.w3.org/2000/svg" width="304.25" height="35" viewBox="0 0 304.25 35"><rect class="svg__rect" x="0" y="0" width="181.69" height="35" fill="#31C4F3" style="--darkreader-inline-fill: #0a85ac;" data-darkreader-inline-fill=""/><rect class="svg__rect" x="179.69" y="0" width="124.56" height="35" fill="#3C9AD5" style="--darkreader-inline-fill: #226f9f;" data-darkreader-inline-fill=""/><path class="svg__text" d="M16.67 22L14.22 22L14.22 13.47L16.74 13.47Q17.87 13.47 18.74 13.97Q19.62 14.48 20.10 15.40Q20.58 16.33 20.58 17.52L20.58 17.52L20.58 17.95Q20.58 19.16 20.10 20.08Q19.61 21.00 18.72 21.50Q17.83 22 16.67 22L16.67 22ZM15.70 14.66L15.70 20.82L16.67 20.82Q17.83 20.82 18.46 20.09Q19.08 19.36 19.09 17.99L19.09 17.99L19.09 17.52Q19.09 16.13 18.49 15.40Q17.89 14.66 16.74 14.66L16.74 14.66L15.70 14.66ZM24.78 18.00L24.78 18.00L24.78 17.52Q24.78 16.28 25.22 15.32Q25.66 14.37 26.47 13.86Q27.27 13.35 28.31 13.35Q29.36 13.35 30.16 13.85Q30.97 14.35 31.41 15.29Q31.85 16.23 31.85 17.48L31.85 17.48L31.85 17.96Q31.85 19.21 31.42 20.16Q30.99 21.10 30.18 21.61Q29.38 22.12 28.33 22.12L28.33 22.12Q27.29 22.12 26.48 21.61Q25.67 21.10 25.22 20.17Q24.78 19.23 24.78 18.00ZM26.26 17.46L26.26 17.96Q26.26 19.36 26.81 20.13Q27.35 20.90 28.33 20.90L28.33 20.90Q29.31 20.90 29.84 20.15Q30.37 19.40 30.37 17.96L30.37 17.96L30.37 17.51Q30.37 16.09 29.84 15.34Q29.30 14.58 28.31 14.58L28.31 14.58Q27.35 14.58 26.81 15.33Q26.27 16.09 26.26 17.46L26.26 17.46ZM41.90 22L36.32 22L36.32 13.47L41.86 13.47L41.86 14.66L37.80 14.66L37.80 17.02L41.31 17.02L41.31 18.19L37.80 18.19L37.80 20.82L41.90 20.82L41.90 22ZM45.66 19.42L45.66 19.42L47.14 19.42Q47.14 20.15 47.62 20.55Q48.10 20.95 49.00 20.95L49.00 20.95Q49.77 20.95 50.16 20.63Q50.55 20.32 50.55 19.80L50.55 19.80Q50.55 19.24 50.16 18.94Q49.76 18.63 48.73 18.32Q47.70 18.01 47.09 17.63L47.09 17.63Q45.92 16.90 45.92 15.72L45.92 15.72Q45.92 14.69 46.76 14.02Q47.60 13.35 48.95 13.35L48.95 13.35Q49.84 13.35 50.53 13.68Q51.23 14.01 51.63 14.61Q52.03 15.22 52.03 15.96L52.03 15.96L50.55 15.96Q50.55 15.29 50.13 14.91Q49.71 14.54 48.93 14.54L48.93 14.54Q48.21 14.54 47.81 14.85Q47.40 15.16 47.40 15.71L47.40 15.71Q47.40 16.18 47.84 16.50Q48.27 16.81 49.27 17.10Q50.26 17.40 50.87 17.78Q51.47 18.16 51.75 18.65Q52.03 19.13 52.03 19.79L52.03 19.79Q52.03 20.86 51.22 21.49Q50.40 22.12 49.00 22.12L49.00 22.12Q48.07 22.12 47.30 21.77Q46.52 21.43 46.09 20.83Q45.66 20.22 45.66 19.42ZM63.78 22L62.30 22L62.30 13.47L63.78 13.47L67.60 19.54L67.60 13.47L69.07 13.47L69.07 22L67.58 22L63.78 15.95L63.78 22ZM73.54 18.00L73.54 18.00L73.54 17.52Q73.54 16.28 73.98 15.32Q74.42 14.37 75.23 13.86Q76.03 13.35 77.08 13.35Q78.12 13.35 78.93 13.85Q79.73 14.35 80.17 15.29Q80.61 16.23 80.62 17.48L80.62 17.48L80.62 17.96Q80.62 19.21 80.18 20.16Q79.75 21.10 78.94 21.61Q78.14 22.12 77.09 22.12L77.09 22.12Q76.05 22.12 75.24 21.61Q74.43 21.10 73.99 20.17Q73.54 19.23 73.54 18.00ZM75.02 17.46L75.02 17.96Q75.02 19.36 75.57 20.13Q76.12 20.90 77.09 20.90L77.09 20.90Q78.07 20.90 78.60 20.15Q79.13 19.40 79.13 17.96L79.13 17.96L79.13 17.51Q79.13 16.09 78.60 15.34Q78.06 14.58 77.08 14.58L77.08 14.58Q76.12 14.58 75.57 15.33Q75.03 16.09 75.02 17.46L75.02 17.46ZM86.76 14.66L84.13 14.66L84.13 13.47L90.89 13.47L90.89 14.66L88.23 14.66L88.23 22L86.76 22L86.76 14.66ZM100.36 18.19L100.36 18.19L100.36 17.39Q100.36 16.19 100.78 15.27Q101.21 14.35 102.01 13.85Q102.81 13.35 103.86 13.35L103.86 13.35Q105.27 13.35 106.13 14.12Q106.99 14.89 107.14 16.29L107.14 16.29L105.66 16.29Q105.55 15.37 105.12 14.96Q104.69 14.55 103.86 14.55L103.86 14.55Q102.89 14.55 102.37 15.26Q101.86 15.96 101.84 17.33L101.84 17.33L101.84 18.09Q101.84 19.47 102.34 20.20Q102.83 20.92 103.79 20.92L103.79 20.92Q104.66 20.92 105.10 20.53Q105.54 20.14 105.66 19.22L105.66 19.22L107.14 19.22Q107.01 20.59 106.13 21.35Q105.25 22.12 103.79 22.12L103.79 22.12Q102.77 22.12 101.99 21.63Q101.22 21.15 100.80 20.26Q100.37 19.37 100.36 18.19ZM111.18 18.00L111.18 18.00L111.18 17.52Q111.18 16.28 111.62 15.32Q112.06 14.37 112.87 13.86Q113.67 13.35 114.72 13.35Q115.76 13.35 116.57 13.85Q117.37 14.35 117.81 15.29Q118.25 16.23 118.26 17.48L118.26 17.48L118.26 17.96Q118.26 19.21 117.82 20.16Q117.39 21.10 116.58 21.61Q115.78 22.12 114.73 22.12L114.73 22.12Q113.69 22.12 112.88 21.61Q112.07 21.10 111.63 20.17Q111.18 19.23 111.18 18.00ZM112.66 17.46L112.66 17.96Q112.66 19.36 113.21 20.13Q113.76 20.90 114.73 20.90L114.73 20.90Q115.71 20.90 116.24 20.15Q116.77 19.40 116.77 17.96L116.77 17.96L116.77 17.51Q116.77 16.09 116.24 15.34Q115.70 14.58 114.72 14.58L114.72 14.58Q113.76 14.58 113.21 15.33Q112.67 16.09 112.66 17.46L112.66 17.46ZM124.20 22L122.72 22L122.72 13.47L124.20 13.47L128.02 19.54L128.02 13.47L129.49 13.47L129.49 22L128.01 22L124.20 15.95L124.20 22ZM135.91 14.66L133.27 14.66L133.27 13.47L140.04 13.47L140.04 14.66L137.38 14.66L137.38 22L135.91 22L135.91 14.66ZM144.58 22L143.04 22L146.26 13.47L147.59 13.47L150.82 22L149.27 22L148.57 20.01L145.27 20.01L144.58 22ZM146.92 15.28L145.68 18.82L148.16 18.82L146.92 15.28ZM156.34 22L154.86 22L154.86 13.47L156.34 13.47L156.34 22ZM162.63 22L161.15 22L161.15 13.47L162.63 13.47L166.44 19.54L166.44 13.47L167.91 13.47L167.91 22L166.43 22L162.63 15.95L162.63 22Z" fill="#FFFFFF" style="--darkreader-inline-fill: #181a1b;" data-darkreader-inline-fill=""/><path class="svg__text" d="M197.85 22L193.88 22L193.88 13.60L197.85 13.60Q199.23 13.60 200.30 14.12Q201.37 14.63 201.96 15.58Q202.54 16.53 202.54 17.80L202.54 17.80Q202.54 19.07 201.96 20.02Q201.37 20.97 200.30 21.48Q199.23 22 197.85 22L197.85 22ZM196.26 15.50L196.26 20.10L197.76 20.10Q198.83 20.10 199.49 19.49Q200.14 18.88 200.14 17.80L200.14 17.80Q200.14 16.72 199.49 16.11Q198.83 15.50 197.76 15.50L197.76 15.50L196.26 15.50ZM214.02 22L207.27 22L207.27 13.60L213.86 13.60L213.86 15.44L209.63 15.44L209.63 16.85L213.36 16.85L213.36 18.63L209.63 18.63L209.63 20.17L214.02 20.17L214.02 22ZM225.57 22L218.82 22L218.82 13.60L225.41 13.60L225.41 15.44L221.18 15.44L221.18 16.85L224.91 16.85L224.91 18.63L221.18 18.63L221.18 20.17L225.57 20.17L225.57 22ZM229.78 21.24L229.78 21.24L230.56 19.49Q231.13 19.86 231.87 20.09Q232.61 20.32 233.33 20.32L233.33 20.32Q234.70 20.32 234.71 19.64L234.71 19.64Q234.71 19.28 234.32 19.11Q233.93 18.93 233.06 18.74L233.06 18.74Q232.11 18.53 231.47 18.30Q230.84 18.06 230.38 17.55Q229.93 17.03 229.93 16.16L229.93 16.16Q229.93 15.39 230.35 14.77Q230.77 14.15 231.60 13.79Q232.44 13.43 233.65 13.43L233.65 13.43Q234.47 13.43 235.28 13.62Q236.08 13.80 236.70 14.17L236.70 14.17L235.97 15.93Q234.76 15.28 233.63 15.28L233.63 15.28Q232.92 15.28 232.60 15.49Q232.28 15.70 232.28 16.04L232.28 16.04Q232.28 16.37 232.66 16.54Q233.05 16.71 233.90 16.89L233.90 16.89Q234.86 17.10 235.49 17.33Q236.12 17.56 236.58 18.07Q237.04 18.58 237.04 19.46L237.04 19.46Q237.04 20.21 236.62 20.83Q236.21 21.44 235.37 21.80Q234.52 22.17 233.32 22.17L233.32 22.17Q232.30 22.17 231.34 21.92Q230.38 21.67 229.78 21.24ZM250.92 22L248.59 22L248.59 13.60L250.55 13.60L254.26 18.07L254.26 13.60L256.58 13.60L256.58 22L254.63 22L250.92 17.52L250.92 22ZM261.68 18.26L261.68 18.26L261.68 13.60L264.06 13.60L264.06 18.19Q264.06 20.20 265.65 20.20L265.65 20.20Q267.23 20.20 267.23 18.19L267.23 18.19L267.23 13.60L269.58 13.60L269.58 18.26Q269.58 20.13 268.54 21.15Q267.50 22.17 265.63 22.17L265.63 22.17Q263.75 22.17 262.71 21.15Q261.68 20.13 261.68 18.26ZM276.45 15.48L273.87 15.48L273.87 13.60L281.39 13.60L281.39 15.48L278.83 15.48L278.83 22L276.45 22L276.45 15.48ZM285.18 21.24L285.18 21.24L285.96 19.49Q286.52 19.86 287.26 20.09Q288.01 20.32 288.73 20.32L288.73 20.32Q290.09 20.32 290.10 19.64L290.10 19.64Q290.10 19.28 289.71 19.11Q289.32 18.93 288.45 18.74L288.45 18.74Q287.50 18.53 286.87 18.30Q286.23 18.06 285.78 17.55Q285.33 17.03 285.33 16.16L285.33 16.16Q285.33 15.39 285.74 14.77Q286.16 14.15 287.00 13.79Q287.83 13.43 289.04 13.43L289.04 13.43Q289.87 13.43 290.67 13.62Q291.48 13.80 292.09 14.17L292.09 14.17L291.36 15.93Q290.16 15.28 289.03 15.28L289.03 15.28Q288.32 15.28 288.00 15.49Q287.67 15.70 287.67 16.04L287.67 16.04Q287.67 16.37 288.06 16.54Q288.44 16.71 289.29 16.89L289.29 16.89Q290.25 17.10 290.88 17.33Q291.51 17.56 291.98 18.07Q292.44 18.58 292.44 19.46L292.44 19.46Q292.44 20.21 292.02 20.83Q291.60 21.44 290.76 21.80Q289.92 22.17 288.72 22.17L288.72 22.17Q287.70 22.17 286.74 21.92Q285.78 21.67 285.18 21.24Z" fill="#FFFFFF" x="192.69" style="--darkreader-inline-fill: #181a1b;" data-darkreader-inline-fill=""/></svg>